<mxfile host="Electron" modified="2024-02-07T03:13:11.721Z" agent="Mozilla/5.0 (Windows NT 10.0; Win64; x64) AppleWebKit/537.36 (KHTML, like Gecko) draw.io/21.2.8 Chrome/112.0.5615.165 Electron/24.2.0 Safari/537.36" etag="3IVQ0l_U4c51c4SjRzf_" version="21.2.8" type="device">
  <diagram name="Page-1" id="QgmnGepWsy2rlmdqpLX-">
    <mxGraphModel dx="2367" dy="1783" grid="1" gridSize="10" guides="1" tooltips="1" connect="1" arrows="1" fold="1" page="0" pageScale="1" pageWidth="850" pageHeight="1100" math="0" shadow="0">
      <root>
        <mxCell id="0" />
        <mxCell id="1" parent="0" />
        <mxCell id="lkTzKowIcCtEEbImuRB7-117" value="" style="endArrow=classic;html=1;rounded=0;exitX=0;exitY=0.5;exitDx=0;exitDy=0;entryX=0.167;entryY=0.005;entryDx=0;entryDy=0;entryPerimeter=0;" edge="1" parent="1" source="lkTzKowIcCtEEbImuRB7-106" target="lkTzKowIcCtEEbImuRB7-108">
          <mxGeometry width="50" height="50" relative="1" as="geometry">
            <mxPoint x="1050" y="470" as="sourcePoint" />
            <mxPoint x="1100" y="420" as="targetPoint" />
            <Array as="points">
              <mxPoint x="850" y="430" />
              <mxPoint x="850" y="560" />
              <mxPoint x="780" y="560" />
            </Array>
          </mxGeometry>
        </mxCell>
        <mxCell id="lkTzKowIcCtEEbImuRB7-15" value="" style="endArrow=classic;html=1;rounded=0;exitX=0;exitY=0.5;exitDx=0;exitDy=0;entryX=1.004;entryY=0.83;entryDx=0;entryDy=0;entryPerimeter=0;" edge="1" parent="1" source="lkTzKowIcCtEEbImuRB7-6" target="lkTzKowIcCtEEbImuRB7-10">
          <mxGeometry width="50" height="50" relative="1" as="geometry">
            <mxPoint x="250" y="470" as="sourcePoint" />
            <mxPoint x="260" y="440" as="targetPoint" />
          </mxGeometry>
        </mxCell>
        <mxCell id="lkTzKowIcCtEEbImuRB7-16" value="" style="endArrow=classic;html=1;rounded=0;entryX=-0.021;entryY=0.745;entryDx=0;entryDy=0;entryPerimeter=0;exitX=1;exitY=0.5;exitDx=0;exitDy=0;" edge="1" parent="1" source="lkTzKowIcCtEEbImuRB7-38" target="lkTzKowIcCtEEbImuRB7-14">
          <mxGeometry width="50" height="50" relative="1" as="geometry">
            <mxPoint x="460" y="387.56" as="sourcePoint" />
            <mxPoint x="510" y="337.56" as="targetPoint" />
          </mxGeometry>
        </mxCell>
        <mxCell id="lkTzKowIcCtEEbImuRB7-87" value="" style="group" vertex="1" connectable="0" parent="1">
          <mxGeometry x="1600" y="-200" width="240" height="530" as="geometry" />
        </mxCell>
        <mxCell id="lkTzKowIcCtEEbImuRB7-189" value="" style="group" vertex="1" connectable="0" parent="lkTzKowIcCtEEbImuRB7-87">
          <mxGeometry width="240" height="480" as="geometry" />
        </mxCell>
        <mxCell id="lkTzKowIcCtEEbImuRB7-88" value="" style="verticalLabelPosition=bottom;verticalAlign=top;html=1;shadow=0;dashed=0;strokeWidth=1;shape=mxgraph.android.phone2;strokeColor=#c0c0c0;" vertex="1" parent="lkTzKowIcCtEEbImuRB7-189">
          <mxGeometry y="40" width="240" height="440" as="geometry" />
        </mxCell>
        <mxCell id="lkTzKowIcCtEEbImuRB7-89" value="Diet" style="text;html=1;strokeColor=default;fillColor=none;align=center;verticalAlign=middle;whiteSpace=wrap;rounded=0;strokeWidth=2;" vertex="1" parent="lkTzKowIcCtEEbImuRB7-189">
          <mxGeometry x="70" width="100" height="30" as="geometry" />
        </mxCell>
        <mxCell id="lkTzKowIcCtEEbImuRB7-90" value="" style="rounded=0;whiteSpace=wrap;html=1;strokeWidth=1;perimeterSpacing=0;fillStyle=solid;" vertex="1" parent="lkTzKowIcCtEEbImuRB7-189">
          <mxGeometry x="10" y="80" width="221" height="30" as="geometry" />
        </mxCell>
        <mxCell id="lkTzKowIcCtEEbImuRB7-91" value="Welcome ... {name} :" style="text;html=1;strokeColor=none;fillColor=none;align=center;verticalAlign=middle;whiteSpace=wrap;rounded=0;" vertex="1" parent="lkTzKowIcCtEEbImuRB7-189">
          <mxGeometry x="10" y="80" width="130" height="30" as="geometry" />
        </mxCell>
        <mxCell id="lkTzKowIcCtEEbImuRB7-92" value="" style="rounded=0;whiteSpace=wrap;html=1;strokeWidth=1;perimeterSpacing=0;fillStyle=solid;" vertex="1" parent="lkTzKowIcCtEEbImuRB7-189">
          <mxGeometry x="10" y="110" width="221" height="30" as="geometry" />
        </mxCell>
        <mxCell id="lkTzKowIcCtEEbImuRB7-93" value="Workout" style="rounded=1;whiteSpace=wrap;html=1;" vertex="1" parent="lkTzKowIcCtEEbImuRB7-189">
          <mxGeometry x="27" y="120" width="60" height="20" as="geometry" />
        </mxCell>
        <mxCell id="lkTzKowIcCtEEbImuRB7-94" value="Current" style="rounded=1;whiteSpace=wrap;html=1;fillColor=default;fillStyle=auto;" vertex="1" parent="lkTzKowIcCtEEbImuRB7-189">
          <mxGeometry x="90" y="120" width="60" height="20" as="geometry" />
        </mxCell>
        <mxCell id="lkTzKowIcCtEEbImuRB7-95" value="Diet / Analytics" style="rounded=1;whiteSpace=wrap;html=1;fillColor=#49454f;" vertex="1" parent="lkTzKowIcCtEEbImuRB7-189">
          <mxGeometry x="153" y="120" width="60" height="20" as="geometry" />
        </mxCell>
        <mxCell id="lkTzKowIcCtEEbImuRB7-100" value="" style="rounded=0;whiteSpace=wrap;html=1;" vertex="1" parent="lkTzKowIcCtEEbImuRB7-189">
          <mxGeometry x="10" y="140" width="221" height="300" as="geometry" />
        </mxCell>
        <mxCell id="lkTzKowIcCtEEbImuRB7-180" value="" style="endArrow=classic;html=1;rounded=0;exitX=1;exitY=0.5;exitDx=0;exitDy=0;entryX=-0.016;entryY=0.857;entryDx=0;entryDy=0;entryPerimeter=0;" edge="1" parent="1" source="lkTzKowIcCtEEbImuRB7-174" target="lkTzKowIcCtEEbImuRB7-88">
          <mxGeometry width="50" height="50" relative="1" as="geometry">
            <mxPoint x="1520" y="300" as="sourcePoint" />
            <mxPoint x="1570" y="250" as="targetPoint" />
          </mxGeometry>
        </mxCell>
        <mxCell id="lkTzKowIcCtEEbImuRB7-181" value="" style="endArrow=classic;html=1;rounded=0;exitX=1;exitY=0.5;exitDx=0;exitDy=0;entryX=-0.016;entryY=0.164;entryDx=0;entryDy=0;entryPerimeter=0;" edge="1" parent="1" source="lkTzKowIcCtEEbImuRB7-175" target="lkTzKowIcCtEEbImuRB7-79">
          <mxGeometry width="50" height="50" relative="1" as="geometry">
            <mxPoint x="1440" y="398" as="sourcePoint" />
            <mxPoint x="1616" y="280" as="targetPoint" />
          </mxGeometry>
        </mxCell>
        <mxCell id="lkTzKowIcCtEEbImuRB7-182" value="" style="group" vertex="1" connectable="0" parent="1">
          <mxGeometry x="1250" y="40" width="240" height="480" as="geometry" />
        </mxCell>
        <mxCell id="lkTzKowIcCtEEbImuRB7-124" value="" style="verticalLabelPosition=bottom;verticalAlign=top;html=1;shadow=0;dashed=0;strokeWidth=1;shape=mxgraph.android.phone2;strokeColor=#c0c0c0;container=0;" vertex="1" parent="lkTzKowIcCtEEbImuRB7-182">
          <mxGeometry y="40" width="240" height="440" as="geometry" />
        </mxCell>
        <mxCell id="lkTzKowIcCtEEbImuRB7-125" value="First time only" style="text;html=1;strokeColor=default;fillColor=none;align=center;verticalAlign=middle;whiteSpace=wrap;rounded=0;strokeWidth=2;container=0;" vertex="1" parent="lkTzKowIcCtEEbImuRB7-182">
          <mxGeometry x="60.5" width="120" height="30" as="geometry" />
        </mxCell>
        <mxCell id="lkTzKowIcCtEEbImuRB7-126" value="" style="rounded=0;whiteSpace=wrap;html=1;strokeWidth=1;perimeterSpacing=0;fillStyle=solid;container=0;" vertex="1" parent="lkTzKowIcCtEEbImuRB7-182">
          <mxGeometry x="10" y="80" width="221" height="30" as="geometry" />
        </mxCell>
        <mxCell id="lkTzKowIcCtEEbImuRB7-127" value="Workout" style="rounded=1;whiteSpace=wrap;html=1;fillColor=default;container=0;" vertex="1" parent="lkTzKowIcCtEEbImuRB7-182">
          <mxGeometry x="20.5" y="90" width="60" height="20" as="geometry" />
        </mxCell>
        <mxCell id="lkTzKowIcCtEEbImuRB7-128" value="Current" style="rounded=1;whiteSpace=wrap;html=1;fillColor=default;gradientColor=none;fillStyle=auto;container=0;" vertex="1" parent="lkTzKowIcCtEEbImuRB7-182">
          <mxGeometry x="90" y="90" width="60" height="20" as="geometry" />
        </mxCell>
        <mxCell id="lkTzKowIcCtEEbImuRB7-129" value="Diet / Analytics" style="rounded=1;whiteSpace=wrap;html=1;fillColor=#4c4653;container=0;" vertex="1" parent="lkTzKowIcCtEEbImuRB7-182">
          <mxGeometry x="160" y="90" width="60" height="20" as="geometry" />
        </mxCell>
        <mxCell id="lkTzKowIcCtEEbImuRB7-130" value="" style="rounded=0;whiteSpace=wrap;html=1;container=0;" vertex="1" parent="lkTzKowIcCtEEbImuRB7-182">
          <mxGeometry x="10" y="110" width="221" height="330" as="geometry" />
        </mxCell>
        <mxCell id="lkTzKowIcCtEEbImuRB7-172" value="This is a one time message" style="rounded=1;whiteSpace=wrap;html=1;container=0;" vertex="1" parent="lkTzKowIcCtEEbImuRB7-182">
          <mxGeometry x="55" y="150" width="130" height="40" as="geometry" />
        </mxCell>
        <mxCell id="lkTzKowIcCtEEbImuRB7-173" value="Would you prefer :" style="rounded=1;whiteSpace=wrap;html=1;container=0;" vertex="1" parent="lkTzKowIcCtEEbImuRB7-182">
          <mxGeometry x="60" y="210" width="120" height="30" as="geometry" />
        </mxCell>
        <mxCell id="lkTzKowIcCtEEbImuRB7-174" value="Diet" style="rounded=1;whiteSpace=wrap;html=1;container=0;" vertex="1" parent="lkTzKowIcCtEEbImuRB7-182">
          <mxGeometry x="67.5" y="270" width="102.5" height="50" as="geometry" />
        </mxCell>
        <mxCell id="lkTzKowIcCtEEbImuRB7-175" value="Analytics" style="rounded=1;whiteSpace=wrap;html=1;container=0;" vertex="1" parent="lkTzKowIcCtEEbImuRB7-182">
          <mxGeometry x="68.75" y="330" width="102.5" height="50" as="geometry" />
        </mxCell>
        <mxCell id="lkTzKowIcCtEEbImuRB7-176" value="This can be changed in ur settings..." style="text;html=1;strokeColor=none;fillColor=none;align=center;verticalAlign=middle;whiteSpace=wrap;rounded=0;fontColor=#797777;container=0;" vertex="1" parent="lkTzKowIcCtEEbImuRB7-182">
          <mxGeometry x="40" y="400" width="160" height="30" as="geometry" />
        </mxCell>
        <mxCell id="lkTzKowIcCtEEbImuRB7-183" value="" style="group" vertex="1" connectable="0" parent="1">
          <mxGeometry x="920" y="40" width="240" height="480" as="geometry" />
        </mxCell>
        <mxCell id="lkTzKowIcCtEEbImuRB7-60" value="" style="verticalLabelPosition=bottom;verticalAlign=top;html=1;shadow=0;dashed=0;strokeWidth=1;shape=mxgraph.android.phone2;strokeColor=#c0c0c0;container=0;" vertex="1" parent="lkTzKowIcCtEEbImuRB7-183">
          <mxGeometry y="40" width="240" height="440" as="geometry" />
        </mxCell>
        <mxCell id="lkTzKowIcCtEEbImuRB7-61" value="Home Page Workout" style="text;html=1;strokeColor=default;fillColor=none;align=center;verticalAlign=middle;whiteSpace=wrap;rounded=0;strokeWidth=2;container=0;" vertex="1" parent="lkTzKowIcCtEEbImuRB7-183">
          <mxGeometry x="60.5" width="120" height="30" as="geometry" />
        </mxCell>
        <mxCell id="lkTzKowIcCtEEbImuRB7-64" value="" style="rounded=0;whiteSpace=wrap;html=1;strokeWidth=1;perimeterSpacing=0;fillStyle=solid;container=0;" vertex="1" parent="lkTzKowIcCtEEbImuRB7-183">
          <mxGeometry x="10" y="80" width="221" height="30" as="geometry" />
        </mxCell>
        <mxCell id="lkTzKowIcCtEEbImuRB7-65" value="Workout" style="rounded=1;whiteSpace=wrap;html=1;fillColor=#47424c;container=0;" vertex="1" parent="lkTzKowIcCtEEbImuRB7-183">
          <mxGeometry x="20.5" y="90" width="60" height="20" as="geometry" />
        </mxCell>
        <mxCell id="lkTzKowIcCtEEbImuRB7-66" value="Current" style="rounded=1;whiteSpace=wrap;html=1;fillColor=default;gradientColor=none;fillStyle=auto;container=0;" vertex="1" parent="lkTzKowIcCtEEbImuRB7-183">
          <mxGeometry x="90" y="90" width="60" height="20" as="geometry" />
        </mxCell>
        <mxCell id="lkTzKowIcCtEEbImuRB7-67" value="Diet / Analytics" style="rounded=1;whiteSpace=wrap;html=1;container=0;" vertex="1" parent="lkTzKowIcCtEEbImuRB7-183">
          <mxGeometry x="160" y="90" width="60" height="20" as="geometry" />
        </mxCell>
        <mxCell id="lkTzKowIcCtEEbImuRB7-97" value="" style="rounded=0;whiteSpace=wrap;html=1;container=0;" vertex="1" parent="lkTzKowIcCtEEbImuRB7-183">
          <mxGeometry x="10" y="110" width="221" height="330" as="geometry" />
        </mxCell>
        <mxCell id="lkTzKowIcCtEEbImuRB7-101" value="Workout 1 - Empty" style="rounded=1;whiteSpace=wrap;html=1;container=0;" vertex="1" parent="lkTzKowIcCtEEbImuRB7-183">
          <mxGeometry x="20" y="120" width="200" height="40" as="geometry" />
        </mxCell>
        <mxCell id="lkTzKowIcCtEEbImuRB7-102" value="Workout 2 - Empty" style="rounded=1;whiteSpace=wrap;html=1;container=0;" vertex="1" parent="lkTzKowIcCtEEbImuRB7-183">
          <mxGeometry x="20" y="170" width="200" height="40" as="geometry" />
        </mxCell>
        <mxCell id="lkTzKowIcCtEEbImuRB7-103" value="Workout 3 - Empty" style="rounded=1;whiteSpace=wrap;html=1;container=0;" vertex="1" parent="lkTzKowIcCtEEbImuRB7-183">
          <mxGeometry x="20.5" y="220" width="200" height="40" as="geometry" />
        </mxCell>
        <mxCell id="lkTzKowIcCtEEbImuRB7-104" value="Workout 4 - Empty" style="rounded=1;whiteSpace=wrap;html=1;container=0;" vertex="1" parent="lkTzKowIcCtEEbImuRB7-183">
          <mxGeometry x="20.5" y="270" width="200" height="40" as="geometry" />
        </mxCell>
        <mxCell id="lkTzKowIcCtEEbImuRB7-105" value="Workout 5 - Empty" style="rounded=1;whiteSpace=wrap;html=1;container=0;" vertex="1" parent="lkTzKowIcCtEEbImuRB7-183">
          <mxGeometry x="20" y="320" width="200" height="40" as="geometry" />
        </mxCell>
        <mxCell id="lkTzKowIcCtEEbImuRB7-106" value="Workout 6 - Empty" style="rounded=1;whiteSpace=wrap;html=1;container=0;" vertex="1" parent="lkTzKowIcCtEEbImuRB7-183">
          <mxGeometry x="20.5" y="370" width="200" height="40" as="geometry" />
        </mxCell>
        <mxCell id="lkTzKowIcCtEEbImuRB7-184" value="" style="group" vertex="1" connectable="0" parent="1">
          <mxGeometry x="560" y="40" width="240" height="480" as="geometry" />
        </mxCell>
        <mxCell id="lkTzKowIcCtEEbImuRB7-14" value="" style="verticalLabelPosition=bottom;verticalAlign=top;html=1;shadow=0;dashed=0;strokeWidth=1;shape=mxgraph.android.phone2;strokeColor=#c0c0c0;container=0;" vertex="1" parent="lkTzKowIcCtEEbImuRB7-184">
          <mxGeometry y="40" width="240" height="440" as="geometry" />
        </mxCell>
        <mxCell id="lkTzKowIcCtEEbImuRB7-19" value="Home Page Stats" style="text;html=1;strokeColor=default;fillColor=none;align=center;verticalAlign=middle;whiteSpace=wrap;rounded=0;strokeWidth=2;container=0;" vertex="1" parent="lkTzKowIcCtEEbImuRB7-184">
          <mxGeometry x="70" width="100" height="30" as="geometry" />
        </mxCell>
        <mxCell id="lkTzKowIcCtEEbImuRB7-44" value="" style="rounded=0;whiteSpace=wrap;html=1;strokeWidth=1;perimeterSpacing=0;fillStyle=solid;container=0;" vertex="1" parent="lkTzKowIcCtEEbImuRB7-184">
          <mxGeometry x="10" y="80" width="221" height="30" as="geometry" />
        </mxCell>
        <mxCell id="lkTzKowIcCtEEbImuRB7-47" value="Welcome ... {name} :" style="text;html=1;strokeColor=none;fillColor=none;align=center;verticalAlign=middle;whiteSpace=wrap;rounded=0;container=0;" vertex="1" parent="lkTzKowIcCtEEbImuRB7-184">
          <mxGeometry x="10" y="80" width="130" height="30" as="geometry" />
        </mxCell>
        <mxCell id="lkTzKowIcCtEEbImuRB7-49" value="" style="rounded=0;whiteSpace=wrap;html=1;strokeWidth=1;perimeterSpacing=0;fillStyle=solid;container=0;" vertex="1" parent="lkTzKowIcCtEEbImuRB7-184">
          <mxGeometry x="10" y="110" width="221" height="30" as="geometry" />
        </mxCell>
        <mxCell id="lkTzKowIcCtEEbImuRB7-50" value="Workout" style="rounded=1;whiteSpace=wrap;html=1;container=0;" vertex="1" parent="lkTzKowIcCtEEbImuRB7-184">
          <mxGeometry x="27" y="120" width="60" height="20" as="geometry" />
        </mxCell>
        <mxCell id="lkTzKowIcCtEEbImuRB7-51" value="Current" style="rounded=1;whiteSpace=wrap;html=1;fillColor=#56525b;container=0;" vertex="1" parent="lkTzKowIcCtEEbImuRB7-184">
          <mxGeometry x="90" y="120" width="60" height="20" as="geometry" />
        </mxCell>
        <mxCell id="lkTzKowIcCtEEbImuRB7-52" value="Diet / Analytics" style="rounded=1;whiteSpace=wrap;html=1;container=0;" vertex="1" parent="lkTzKowIcCtEEbImuRB7-184">
          <mxGeometry x="153" y="120" width="60" height="20" as="geometry" />
        </mxCell>
        <mxCell id="lkTzKowIcCtEEbImuRB7-96" value="" style="rounded=0;whiteSpace=wrap;html=1;container=0;" vertex="1" parent="lkTzKowIcCtEEbImuRB7-184">
          <mxGeometry x="10" y="140" width="221" height="300" as="geometry" />
        </mxCell>
        <mxCell id="lkTzKowIcCtEEbImuRB7-185" value="" style="group" vertex="1" connectable="0" parent="1">
          <mxGeometry x="280" y="40" width="240" height="480" as="geometry" />
        </mxCell>
        <mxCell id="lkTzKowIcCtEEbImuRB7-17" value="Home Page" style="text;html=1;strokeColor=default;fillColor=none;align=center;verticalAlign=middle;whiteSpace=wrap;rounded=0;strokeWidth=2;container=0;" vertex="1" parent="lkTzKowIcCtEEbImuRB7-185">
          <mxGeometry x="80" width="80" height="30" as="geometry" />
        </mxCell>
        <mxCell id="lkTzKowIcCtEEbImuRB7-1" value="" style="verticalLabelPosition=bottom;verticalAlign=top;html=1;shadow=0;dashed=0;strokeWidth=1;shape=mxgraph.android.phone2;strokeColor=#c0c0c0;container=0;" vertex="1" parent="lkTzKowIcCtEEbImuRB7-185">
          <mxGeometry y="40" width="240" height="440" as="geometry" />
        </mxCell>
        <mxCell id="lkTzKowIcCtEEbImuRB7-2" value="" style="verticalLabelPosition=bottom;verticalAlign=top;html=1;shadow=0;dashed=0;strokeWidth=1;shape=mxgraph.android.contact_badge_focused;sketch=0;container=0;" vertex="1" parent="lkTzKowIcCtEEbImuRB7-185">
          <mxGeometry x="40" y="104.39024390243901" width="160" height="171.70731707317074" as="geometry" />
        </mxCell>
        <mxCell id="lkTzKowIcCtEEbImuRB7-6" value="Sign Up" style="rounded=1;whiteSpace=wrap;html=1;container=0;" vertex="1" parent="lkTzKowIcCtEEbImuRB7-185">
          <mxGeometry x="62.81999999999999" y="394.1463414634147" width="114.37" height="21.463414634146343" as="geometry" />
        </mxCell>
        <mxCell id="lkTzKowIcCtEEbImuRB7-36" value="Email" style="rounded=1;whiteSpace=wrap;html=1;container=0;" vertex="1" parent="lkTzKowIcCtEEbImuRB7-185">
          <mxGeometry x="60" y="300" width="120" height="22.44" as="geometry" />
        </mxCell>
        <mxCell id="lkTzKowIcCtEEbImuRB7-37" value="Password" style="rounded=1;whiteSpace=wrap;html=1;container=0;" vertex="1" parent="lkTzKowIcCtEEbImuRB7-185">
          <mxGeometry x="60" y="330" width="120" height="22.44" as="geometry" />
        </mxCell>
        <mxCell id="lkTzKowIcCtEEbImuRB7-38" value="Login" style="rounded=1;whiteSpace=wrap;html=1;container=0;" vertex="1" parent="lkTzKowIcCtEEbImuRB7-185">
          <mxGeometry x="81.41000000000003" y="360" width="77.18" height="20" as="geometry" />
        </mxCell>
        <mxCell id="lkTzKowIcCtEEbImuRB7-39" value="Forgot Password..." style="text;html=1;strokeColor=none;fillColor=none;align=center;verticalAlign=middle;whiteSpace=wrap;rounded=0;container=0;" vertex="1" parent="lkTzKowIcCtEEbImuRB7-185">
          <mxGeometry x="66.25" y="415.61" width="107.5" height="30" as="geometry" />
        </mxCell>
        <mxCell id="lkTzKowIcCtEEbImuRB7-186" value="" style="group" vertex="1" connectable="0" parent="1">
          <mxGeometry y="40" width="240" height="480" as="geometry" />
        </mxCell>
        <mxCell id="lkTzKowIcCtEEbImuRB7-10" value="" style="verticalLabelPosition=bottom;verticalAlign=top;html=1;shadow=0;dashed=0;strokeWidth=1;shape=mxgraph.android.phone2;strokeColor=#c0c0c0;container=0;" vertex="1" parent="lkTzKowIcCtEEbImuRB7-186">
          <mxGeometry y="40" width="240" height="440" as="geometry" />
        </mxCell>
        <mxCell id="lkTzKowIcCtEEbImuRB7-18" value="Sign Up Page" style="text;html=1;strokeColor=default;fillColor=none;align=center;verticalAlign=middle;whiteSpace=wrap;rounded=0;strokeWidth=2;container=0;" vertex="1" parent="lkTzKowIcCtEEbImuRB7-186">
          <mxGeometry x="80" width="80" height="30" as="geometry" />
        </mxCell>
        <mxCell id="lkTzKowIcCtEEbImuRB7-20" value="&amp;nbsp;Welcome&amp;nbsp;" style="rounded=1;whiteSpace=wrap;html=1;container=0;" vertex="1" parent="lkTzKowIcCtEEbImuRB7-186">
          <mxGeometry x="60" y="90" width="120" height="30" as="geometry" />
        </mxCell>
        <mxCell id="lkTzKowIcCtEEbImuRB7-21" value="*What do we call you? : ____" style="rounded=1;whiteSpace=wrap;html=1;container=0;" vertex="1" parent="lkTzKowIcCtEEbImuRB7-186">
          <mxGeometry x="30" y="140" width="180" height="20" as="geometry" />
        </mxCell>
        <mxCell id="lkTzKowIcCtEEbImuRB7-22" value="*email : ______" style="rounded=1;whiteSpace=wrap;html=1;container=0;" vertex="1" parent="lkTzKowIcCtEEbImuRB7-186">
          <mxGeometry x="30" y="170" width="180" height="20" as="geometry" />
        </mxCell>
        <mxCell id="lkTzKowIcCtEEbImuRB7-23" value="*Password : _______&amp;nbsp;" style="rounded=1;whiteSpace=wrap;html=1;container=0;" vertex="1" parent="lkTzKowIcCtEEbImuRB7-186">
          <mxGeometry x="30" y="200" width="180" height="20" as="geometry" />
        </mxCell>
        <mxCell id="lkTzKowIcCtEEbImuRB7-24" value="Sex ^" style="rounded=1;whiteSpace=wrap;html=1;container=0;" vertex="1" parent="lkTzKowIcCtEEbImuRB7-186">
          <mxGeometry x="30" y="280" width="80" height="30" as="geometry" />
        </mxCell>
        <mxCell id="lkTzKowIcCtEEbImuRB7-25" value="Age ^" style="rounded=1;whiteSpace=wrap;html=1;container=0;" vertex="1" parent="lkTzKowIcCtEEbImuRB7-186">
          <mxGeometry x="130" y="280" width="80" height="30" as="geometry" />
        </mxCell>
        <mxCell id="lkTzKowIcCtEEbImuRB7-27" value="lbs or kg" style="rounded=1;whiteSpace=wrap;html=1;container=0;" vertex="1" parent="lkTzKowIcCtEEbImuRB7-186">
          <mxGeometry x="30" y="320" width="80" height="30" as="geometry" />
        </mxCell>
        <mxCell id="lkTzKowIcCtEEbImuRB7-28" value="weight" style="rounded=1;whiteSpace=wrap;html=1;container=0;" vertex="1" parent="lkTzKowIcCtEEbImuRB7-186">
          <mxGeometry x="130" y="320" width="80" height="30" as="geometry" />
        </mxCell>
        <mxCell id="lkTzKowIcCtEEbImuRB7-29" value="cm or inches" style="rounded=1;whiteSpace=wrap;html=1;container=0;" vertex="1" parent="lkTzKowIcCtEEbImuRB7-186">
          <mxGeometry x="30" y="360" width="80" height="30" as="geometry" />
        </mxCell>
        <mxCell id="lkTzKowIcCtEEbImuRB7-30" value="Height" style="rounded=1;whiteSpace=wrap;html=1;container=0;" vertex="1" parent="lkTzKowIcCtEEbImuRB7-186">
          <mxGeometry x="130" y="360" width="80" height="30" as="geometry" />
        </mxCell>
        <mxCell id="lkTzKowIcCtEEbImuRB7-31" value="Login" style="rounded=1;whiteSpace=wrap;html=1;container=0;" vertex="1" parent="lkTzKowIcCtEEbImuRB7-186">
          <mxGeometry x="50" y="400" width="140" height="30" as="geometry" />
        </mxCell>
        <mxCell id="lkTzKowIcCtEEbImuRB7-35" value="Not Required" style="text;html=1;strokeColor=none;fillColor=none;align=center;verticalAlign=middle;whiteSpace=wrap;rounded=0;container=0;" vertex="1" parent="lkTzKowIcCtEEbImuRB7-186">
          <mxGeometry x="20" y="250" width="60" height="20" as="geometry" />
        </mxCell>
        <mxCell id="lkTzKowIcCtEEbImuRB7-187" value="" style="group" vertex="1" connectable="0" parent="1">
          <mxGeometry x="740" y="580" width="240" height="480" as="geometry" />
        </mxCell>
        <mxCell id="lkTzKowIcCtEEbImuRB7-108" value="" style="verticalLabelPosition=bottom;verticalAlign=top;html=1;shadow=0;dashed=0;strokeWidth=1;shape=mxgraph.android.phone2;strokeColor=#c0c0c0;container=0;" vertex="1" parent="lkTzKowIcCtEEbImuRB7-187">
          <mxGeometry y="40" width="240" height="440" as="geometry" />
        </mxCell>
        <mxCell id="lkTzKowIcCtEEbImuRB7-109" value="Generic Workout Page" style="text;html=1;strokeColor=default;fillColor=none;align=center;verticalAlign=middle;whiteSpace=wrap;rounded=0;strokeWidth=2;container=0;" vertex="1" parent="lkTzKowIcCtEEbImuRB7-187">
          <mxGeometry x="50" width="140" height="30" as="geometry" />
        </mxCell>
        <mxCell id="lkTzKowIcCtEEbImuRB7-188" value="" style="group" vertex="1" connectable="0" parent="1">
          <mxGeometry x="1600" y="320" width="240" height="480" as="geometry" />
        </mxCell>
        <mxCell id="lkTzKowIcCtEEbImuRB7-79" value="" style="verticalLabelPosition=bottom;verticalAlign=top;html=1;shadow=0;dashed=0;strokeWidth=1;shape=mxgraph.android.phone2;strokeColor=#c0c0c0;container=0;" vertex="1" parent="lkTzKowIcCtEEbImuRB7-188">
          <mxGeometry y="40" width="240" height="440" as="geometry" />
        </mxCell>
        <mxCell id="lkTzKowIcCtEEbImuRB7-80" value="Analytics" style="text;html=1;strokeColor=default;fillColor=none;align=center;verticalAlign=middle;whiteSpace=wrap;rounded=0;strokeWidth=2;container=0;" vertex="1" parent="lkTzKowIcCtEEbImuRB7-188">
          <mxGeometry x="70" width="100" height="30" as="geometry" />
        </mxCell>
        <mxCell id="lkTzKowIcCtEEbImuRB7-81" value="" style="rounded=0;whiteSpace=wrap;html=1;strokeWidth=1;perimeterSpacing=0;fillStyle=solid;container=0;" vertex="1" parent="lkTzKowIcCtEEbImuRB7-188">
          <mxGeometry x="10" y="80" width="221" height="30" as="geometry" />
        </mxCell>
        <mxCell id="lkTzKowIcCtEEbImuRB7-82" value="Welcome ... {name} :" style="text;html=1;strokeColor=none;fillColor=none;align=center;verticalAlign=middle;whiteSpace=wrap;rounded=0;container=0;" vertex="1" parent="lkTzKowIcCtEEbImuRB7-188">
          <mxGeometry x="10" y="80" width="130" height="30" as="geometry" />
        </mxCell>
        <mxCell id="lkTzKowIcCtEEbImuRB7-83" value="" style="rounded=0;whiteSpace=wrap;html=1;strokeWidth=1;perimeterSpacing=0;fillStyle=solid;container=0;" vertex="1" parent="lkTzKowIcCtEEbImuRB7-188">
          <mxGeometry x="10" y="110" width="221" height="30" as="geometry" />
        </mxCell>
        <mxCell id="lkTzKowIcCtEEbImuRB7-84" value="Workout" style="rounded=1;whiteSpace=wrap;html=1;container=0;" vertex="1" parent="lkTzKowIcCtEEbImuRB7-188">
          <mxGeometry x="27" y="120" width="60" height="20" as="geometry" />
        </mxCell>
        <mxCell id="lkTzKowIcCtEEbImuRB7-85" value="Current" style="rounded=1;whiteSpace=wrap;html=1;fillColor=default;fillStyle=auto;container=0;" vertex="1" parent="lkTzKowIcCtEEbImuRB7-188">
          <mxGeometry x="90" y="120" width="60" height="20" as="geometry" />
        </mxCell>
        <mxCell id="lkTzKowIcCtEEbImuRB7-86" value="Diet / Analytics" style="rounded=1;whiteSpace=wrap;html=1;fillColor=#49454f;container=0;" vertex="1" parent="lkTzKowIcCtEEbImuRB7-188">
          <mxGeometry x="153" y="120" width="60" height="20" as="geometry" />
        </mxCell>
        <mxCell id="lkTzKowIcCtEEbImuRB7-99" value="" style="rounded=0;whiteSpace=wrap;html=1;container=0;" vertex="1" parent="lkTzKowIcCtEEbImuRB7-188">
          <mxGeometry x="10" y="140" width="221" height="300" as="geometry" />
        </mxCell>
      </root>
    </mxGraphModel>
  </diagram>
</mxfile>
